<svg aria-hidden="true" style="position:absolute;width:0;height:0" xmlns="http://www.w3.org/2000/svg" overflow="hidden"><defs><symbol id="add-to-card" viewBox="0 0 32 32"><path fill="var(--color1, #fff)" d="M26.808 21.385a.94.94 0 00.924-.763l1.933-10.02a.941.941 0 00-.924-1.119h-5.793l1.444-1.979a.942.942 0 00-.76-1.496h-2.05V.941A.94.94 0 0020.641 0h-5.256a.94.94 0 00-.941.941v5.067h-2.05a.942.942 0 00-.76 1.496l1.444 1.979H8.152l-.605-3.415a.94.94 0 00-.927-.777H3.26a.94.94 0 100 1.882h2.571c.835 4.716.133.971 2.523 13.361v3.053a4.266 4.266 0 00-3.316 4.153 4.264 4.264 0 004.26 4.259 4.265 4.265 0 004.153-3.318h6.018A4.267 4.267 0 0023.622 32c2.349 0 4.259-1.911 4.259-4.259s-1.911-4.259-4.259-4.259a4.266 4.266 0 00-4.153 3.318H13.45a4.272 4.272 0 00-3.214-3.213v-2.201zM15.384 7.891a.94.94 0 00.941-.941V1.883h3.374V6.95c0 .52.421.941.941.941h1.14l-3.768 5.164-3.768-5.164zm-.934 3.475l2.802 3.84a.942.942 0 001.521 0l2.802-3.84h6.026l-1.57 8.137h-15.96l-1.57-8.137zm9.172 13.997c1.311 0 2.377 1.066 2.377 2.377s-1.066 2.377-2.377 2.377-2.377-1.066-2.377-2.377 1.066-2.377 2.377-2.377zm-11.948 2.376v.002c0 1.31-1.067 2.376-2.377 2.376S6.92 29.051 6.92 27.74s1.066-2.377 2.377-2.377a2.38 2.38 0 012.377 2.376z"/></symbol><symbol id="clock" viewBox="0 0 32 32"><path fill="var(--color1, #fff)" d="M16 32C7.177 32 0 24.823 0 16S7.177 0 16 0s16 7.177 16 16-7.177 16-16 16zm0-30C8.28 2 2 8.28 2 16s6.28 14 14 14 14-6.28 14-14S23.72 2 16 2z"/><path fill="var(--color1, #fff)" d="M23 24.667a.993.993 0 01-.707-.293l-7-7a1 1 0 01-.293-.707V7.333a1 1 0 012 0v8.919l6.707 6.707A1 1 0 0123 24.667z"/></symbol><symbol id="compass" viewBox="0 0 32 32"><path fill="var(--color2, #4ec6ab)" d="M24.272 28.718a.626.626 0 00-.866-.179 13.438 13.438 0 01-7.407 2.211c-7.444 0-13.5-6.056-13.5-13.5 0-2.59.735-5.106 2.126-7.276A.624.624 0 103.572 9.3a14.698 14.698 0 00-2.324 7.951c0 3.94 1.534 7.644 4.32 10.43s6.49 4.32 10.43 4.32c2.89 0 5.689-.836 8.093-2.417a.626.626 0 00.179-.866zM26.43 6.82a14.651 14.651 0 00-7.77-4.082l.002-.077c0-1.468-1.194-2.662-2.662-2.662s-2.662 1.194-2.662 2.662l.002.08c-1.76.321-3.452.961-4.989 1.895A.626.626 0 009 5.705a13.478 13.478 0 017-1.954c7.444 0 13.5 6.056 13.5 13.5 0 2.513-.695 4.964-2.009 7.09a.624.624 0 00.532.954c.223 0 .42-.117.53-.294l.002-.003a14.716 14.716 0 002.196-7.748c0-3.94-1.534-7.644-4.32-10.43zM16 2.5c-.472 0-.941.023-1.408.067a1.412 1.412 0 012.816 0A14.88 14.88 0 0016 2.5zm.442 14.308a.63.63 0 00-.884 0 .63.63 0 000 .884.63.63 0 00.884 0 .63.63 0 000-.884z"/><path fill="var(--color2, #4ec6ab)" d="M16.442 7.871A.623.623 0 0016 7.688a.631.631 0 00-.442.183.63.63 0 000 .884.63.63 0 00.884 0 .63.63 0 000-.884zm0 17.875a.623.623 0 00-.442-.183.631.631 0 00-.442.183.63.63 0 000 .884.63.63 0 00.884 0 .63.63 0 000-.884zm8.937-8.938a.63.63 0 00-.884 0 .63.63 0 000 .884.63.63 0 00.884 0 .63.63 0 000-.884zm-17.875 0a.63.63 0 00-.884 0 .63.63 0 000 .884.63.63 0 00.884 0 .63.63 0 000-.884z"/><path fill="var(--color2, #4ec6ab)" d="M16 5.375c-6.548 0-11.875 5.327-11.875 11.875S9.452 29.125 16 29.125s11.875-5.327 11.875-11.875S22.548 5.375 16 5.375zM5.375 17.25c0-5.859 4.766-10.625 10.625-10.625 2.678 0 5.127.996 6.998 2.637l-6.977 4.863-.021-.001a3.129 3.129 0 00-3.124 3.145l-4.872 6.969a10.58 10.58 0 01-2.629-6.989zm8.757.159a1.877 1.877 0 012.033-2.025l-.007-.001a1.877 1.877 0 011.71 1.71v.007a1.877 1.877 0 01-2.02 2.019h-.006a1.876 1.876 0 01-1.709-1.709zm.284 2.533l-3.684 2.576 2.576-3.684c.275.46.649.834 1.094 1.101l.014.008zm3.169-5.383l3.65-2.544-2.544 3.65a3.171 3.171 0 00-1.092-1.098l-.014-.008zM16 27.875c-2.674 0-5.119-.993-6.989-2.629l6.969-4.872H16a3.129 3.129 0 003.125-3.125v-.021l4.863-6.977a10.58 10.58 0 012.637 6.998c0 5.859-4.766 10.625-10.625 10.625zM6.476 6.799a.625.625 0 00-1.067.442.627.627 0 00.625.625.625.625 0 00.442-1.067zm20.321 19.615a.63.63 0 00-.884 0 .626.626 0 00-.183.442c0 .164.067.326.183.442a.63.63 0 00.884 0 .623.623 0 00.183-.442.631.631 0 00-.183-.443z"/></symbol><symbol id="heart" viewBox="0 0 32 32"><path fill="var(--color1, #fff)" d="M23.563 1.938c-2.643 0-4.962 1.268-6.708 3.667-.357.49-.654.979-.898 1.432-.235-.45-.521-.936-.866-1.422-1.704-2.405-4.005-3.677-6.652-3.677-4.951 0-8.438 4.167-8.438 9.157 0 5.65 4.55 9.527 11.437 15.396 1.239 1.056 2.52 2.147 3.883 3.34a.934.934 0 001.234 0c1.448-1.267 2.807-2.42 4.12-3.535C27.094 20.849 32 16.812 32 11.095c0-4.998-3.494-9.157-8.438-9.157zm-4.101 22.928c-1.131.96-2.296 1.948-3.524 3.015-1.143-.993-2.229-1.918-3.284-2.818-6.605-5.628-10.791-9.186-10.791-13.969 0-4.152 2.834-7.295 6.575-7.295 2.026 0 3.74.969 5.092 2.856a10.866 10.866 0 011.504 3.032.938.938 0 001.803.014c.017-.059 1.785-5.901 6.725-5.901 3.741 0 6.575 3.143 6.575 7.295 0 4.723-4.254 8.323-10.675 13.771z"/></symbol><symbol id="mail" viewBox="0 0 32 32"><path fill="var(--color1, #fff)" d="M31.978 7.915a1.64 1.64 0 00-1.639-1.637h-.002l-28.7.039c-.438.001-.849.172-1.158.482S0 7.521.001 7.959l.022 16.127c.001.438.172.849.482 1.158s.72.478 1.157.478h.002l28.7-.039a1.64 1.64 0 001.637-1.641l-.022-16.127zm-3.44.004l-12.537 8.715L3.44 7.953l25.098-.035zm-7.235 10.36l7.436 5.767-25.498.035 7.481-5.802a.819.819 0 10-1.005-1.295L1.66 23.232l-.02-14.53 13.896 9.604a.817.817 0 00.934-.002l13.869-9.641.021 14.567-8.053-6.246a.82.82 0 00-1.005 1.295z"/></symbol><symbol id="moneyback" viewBox="0 0 32 32"><path fill="var(--color2, #4ec6ab)" d="M30.5 4H29c-1.641 0-3.218-.273-4.688-.774l.102.03a14.692 14.692 0 01-4.151-2.183l.037.027a.5.5 0 00-.601.001L19.7 1.1A14.498 14.498 0 0111.002 4H9.5a.5.5 0 00-.5.5v3.9c0 .947.08 1.875.233 2.779l-.014-.097.986-.163a15.062 15.062 0 01-.206-2.518v-3.4h1a15.537 15.537 0 009.047-2.913l-.047.032a15.504 15.504 0 003.986 2.053l.11.033c1.463.504 3.149.795 4.903.795h1v3.4c-.02 6.132-3.58 11.428-8.742 13.953l-.092.041-1.38.655.429.903 1.381-.655c5.594-2.731 9.384-8.369 9.405-14.894V4.501a.5.5 0 00-.5-.5z"/><path fill="var(--color2, #4ec6ab)" d="M20.735 21.491C25.65 19.09 28.981 14.136 29 8.402V6.489a.5.5 0 00-.484-.5h-.001a16.489 16.489 0 01-8.318-2.535l.068.04a.497.497 0 00-.53.002l.002-.001c-2.346 1.482-5.182 2.398-8.224 2.494l-.026.001a.5.5 0 00-.485.5v1.911c0 .953.093 1.884.271 2.784l-.015-.091.982-.189a12.962 12.962 0 01-.241-2.505V6.968a17.512 17.512 0 008.078-2.507l-.078.044c2.29 1.392 5.024 2.285 7.951 2.461l.049.002v1.431c-.017 5.34-3.117 9.953-7.613 12.152l-.08.035-.52.245.426.905z"/><path fill="var(--color2, #4ec6ab)" d="M1 29.439c.001.861.699 1.56 1.56 1.561h16.879a1.561 1.561 0 001.104-2.665L19 26.792v-4.706a7.199 7.199 0 00-5.218-6.92l-.051-.012 1.219-2.432a.5.5 0 00-.447-.723H7.5a.5.5 0 00-.446.726l-.001-.003 1.216 2.432C5.206 16.025 3 18.798 3 22.086v4.706l-1.543 1.543A1.546 1.546 0 001 29.434v.005zM13.691 13l-1 2H9.309l-1-2zM2.164 29.043l1.69-1.689A.495.495 0 004 27v-4.912a6.199 6.199 0 015.007-6.082L9.046 16h3.908c2.892.561 5.046 3.073 5.046 6.088V27c0 .138.056.263.146.354l1.689 1.689a.56.56 0 01-.397.957H2.559a.56.56 0 01-.396-.957z"/><path fill="var(--color2, #4ec6ab)" d="M10.25 23.5h1.5a.75.75 0 010 1.5H9v1h1.5v1h1v-1h.25a1.75 1.75 0 000-3.5h-1.5a.75.75 0 010-1.5H13v-1h-1.5v-1h-1v1h-.25a1.75 1.75 0 000 3.5zM19.5 6h1v1h-1zM26 8h1v1h-1zM13 8h1v1h-1zm11 6h1v1h-1zm-4.5 4.5h1v1h-1zM15 14h1v1h-1z"/></symbol><symbol id="next" viewBox="0 0 32 32"><path d="M31.622 14.772c-.079-.118-.158-.237-.276-.315a1.995 1.995 0 00-.315-.276L18.375 5.467c-.513-.355-1.065-.434-1.617-.355-.552.118-1.065.394-1.38.907-.118.197-.237.394-.276.591-.039.158-.079.315-.079.473v6.387L3.352 5.466c-.513-.355-1.065-.434-1.617-.355-.552.118-1.065.394-1.38.907-.118.197-.237.394-.276.591C.04 6.767 0 6.924 0 7.082v17.664c0 .591.237 1.143.631 1.538s.946.631 1.538.631c.237 0 .513-.039.71-.118l12.144-8.28v6.23c0 .591.237 1.143.631 1.538s.946.631 1.538.631c.237 0 .513-.039.71-.118.237-.079.434-.197.591-.355l12.578-8.674c.513-.355.789-.867.907-1.38a2.345 2.345 0 00-.355-1.617zm-16.758 1.301L2.247 24.787c-.039 0-.039.039-.079.039h-.079c-.039 0-.079 0-.079-.039-.039-.039-.039-.039-.039-.079V7.162c0-.039.039-.039.079-.039h.079l12.656 8.753c0 .039.039.079 0 .079.118.079.079.118.079.118zm15.023 0l-12.578 8.714c-.039 0-.039.039-.079.039h-.079c-.039 0-.079 0-.079-.039-.039-.039-.039-.039-.039-.079V7.162c0-.039.039-.039.079-.039h.079l6.348 4.377 6.309 4.377c0 .039.039.079 0 .079.079.079.079.118.039.118z"/></symbol><symbol id="phone" viewBox="0 0 32 32"><path fill="var(--color1, #fff)" d="M31.16 24.686l-6.477-4.319a1.89 1.89 0 00-2.531.411l-1.887 2.426a.807.807 0 01-1.034.218l-.359-.198c-1.19-.648-2.67-1.456-5.652-4.439s-3.791-4.465-4.44-5.652l-.197-.359a.807.807 0 01.213-1.038L11.22 9.85a1.89 1.89 0 00.412-2.531L7.313.842A1.88 1.88 0 004.778.271L2.07 1.898A3.822 3.822 0 00.328 4.159c-.975 3.554-.242 9.687 8.793 18.722C16.308 30.067 21.658 32 25.335 32a9.427 9.427 0 002.506-.327 3.815 3.815 0 002.261-1.742l1.629-2.707a1.88 1.88 0 00-.57-2.536zm-.348 1.989l-1.625 2.708a2.761 2.761 0 01-1.626 1.261c-3.281.901-9.012.155-17.685-8.519S.457 7.721 1.357 4.44a2.765 2.765 0 011.262-1.629l2.708-1.625a.816.816 0 011.1.247l4.316 6.476a.822.822 0 01-.178 1.099L8.14 10.894a1.865 1.865 0 00-.494 2.395l.193.35c.682 1.25 1.529 2.805 4.622 5.898s4.648 3.94 5.897 4.622l.35.193c.81.454 1.831.244 2.395-.494l1.886-2.425a.822.822 0 011.099-.178l6.476 4.319a.814.814 0 01.247 1.1zM18.132 5.336c5.004.006 9.06 4.061 9.065 9.065a.533.533 0 101.066 0c-.006-5.593-4.539-10.126-10.132-10.132a.533.533 0 100 1.066z"/><path fill="var(--color1, #fff)" d="M18.132 8.536a5.873 5.873 0 015.866 5.866.533.533 0 101.066 0 6.94 6.94 0 00-6.932-6.932.533.533 0 100 1.066z"/><path fill="var(--color1, #fff)" d="M18.132 11.735a2.67 2.67 0 012.666 2.666.533.533 0 101.066 0 3.737 3.737 0 00-3.733-3.733.533.533 0 100 1.066z"/></symbol><symbol id="settings" viewBox="0 0 32 32"><path fill="var(--color2, #4ec6ab)" d="M31.404 5.804h-1.436a6.211 6.211 0 00-.274-.662l.017.038 1.013-1.013a.533.533 0 000-.754l-2.261-2.264a.534.534 0 00-.754 0l-1.013 1.013a6.047 6.047 0 00-.579-.242l-.045-.014V.47a.533.533 0 00-.533-.533h-3.2a.533.533 0 00-.533.533v1.436c-.212.075-.42.161-.624.257L20.169 1.15a.535.535 0 00-.754 0l-2.264 2.261a.535.535 0 000 .754l1.013 1.013a5.81 5.81 0 00-.241.579l-.014.045h-1.436a.533.533 0 00-.533.533v3.2c0 .294.239.533.533.533h1.436c.075.212.161.42.257.624l-1.013 1.013a.53.53 0 000 .754l2.263 2.263a.533.533 0 00.754 0l1.013-1.013c.203.096.411.182.623.257v1.436c0 .294.239.533.533.533h3.2a.533.533 0 00.533-.533v-1.436c.212-.075.42-.161.623-.257l1.013 1.013a.533.533 0 00.754 0l2.263-2.263a.535.535 0 000-.754l-1.013-1.013c.096-.203.182-.411.256-.623h1.436a.533.533 0 00.533-.533v-3.2a.533.533 0 00-.533-.533zm-.533 3.2h-1.294a.532.532 0 00-.512.384l-.001.004a5.298 5.298 0 01-.485 1.17l.014-.026a.53.53 0 00.088.64l.912.913-1.508 1.508-.913-.913a.532.532 0 00-.642-.087l.003-.001a5.183 5.183 0 01-1.105.462l-.037.009a.533.533 0 00-.388.513v1.291h-2.131v-1.293a.533.533 0 00-.385-.512l-.004-.001a5.317 5.317 0 01-1.169-.485l.027.014a.53.53 0 00-.64.088l-.913.913-1.508-1.508.913-.913a.532.532 0 00.087-.643l.001.003a5.183 5.183 0 01-.462-1.105l-.009-.037a.534.534 0 00-.51-.386h-1.294V6.873H18.3a.532.532 0 00.512-.384l.001-.004c.125-.436.285-.816.485-1.17l-.014.027a.53.53 0 00-.088-.64l-.913-.91 1.508-1.508.913.913a.532.532 0 00.643.087l-.003.001a5.183 5.183 0 011.105-.462l.037-.009a.533.533 0 00.386-.512V1.007h2.133V2.3c0 .239.159.448.388.513.436.124.816.285 1.17.485l-.026-.014a.53.53 0 00.64-.088l.913-.913 1.508 1.508-.913.913a.532.532 0 00-.087.642l-.001-.003c.186.328.347.707.462 1.105l.009.037c.065.226.27.388.513.388h1.291v2.131z"/><path fill="var(--color2, #4ec6ab)" d="M23.938 4.737a3.2 3.2 0 100 6.4 3.2 3.2 0 000-6.4zm0 5.334a2.133 2.133 0 110-4.266 2.133 2.133 0 010 4.266zm-10.134 6.4a.533.533 0 00-.533-.533h-1.315a5.208 5.208 0 00-.373-.892l.014.028.931-.931a.53.53 0 000-.754l-1.508-1.508a.53.53 0 00-.754 0l-.931.931a5.038 5.038 0 00-.826-.349l-.037-.01v-1.315a.533.533 0 00-.533-.533H5.806a.533.533 0 00-.533.533v1.315c-.334.106-.62.228-.892.373l.028-.014-.931-.931a.533.533 0 00-.754 0l-1.508 1.508a.53.53 0 000 .754l.931.931a5.013 5.013 0 00-.349.827l-.01.037H.473a.533.533 0 00-.533.533v2.134c0 .294.239.533.533.533h1.315c.106.334.228.62.373.892l-.014-.028-.931.931a.533.533 0 000 .754l1.508 1.508a.534.534 0 00.754 0l.931-.931c.243.131.529.253.826.349l.037.01v1.315c0 .294.239.533.533.533h2.133a.533.533 0 00.533-.533v-1.315a5.13 5.13 0 00.892-.373l-.028.014.931.931a.53.53 0 00.754 0l1.508-1.508a.533.533 0 000-.754l-.931-.931c.131-.243.253-.529.349-.827l.01-.037h1.315a.533.533 0 00.533-.533zm-1.066 1.6h-1.189a.533.533 0 00-.519.411l-.001.004c-.116.5-.305.94-.558 1.337l.01-.017a.53.53 0 00.074.662l.842.842-.754.754-.842-.842a.533.533 0 00-.664-.073l.002-.001c-.379.244-.82.433-1.291.545l-.029.006a.535.535 0 00-.415.517v1.189H6.337v-1.189a.533.533 0 00-.411-.519l-.004-.001a4.232 4.232 0 01-1.337-.558l.017.01a.535.535 0 00-.661.074l-.842.842-.754-.754.842-.842a.533.533 0 00.073-.664l.001.002a4.158 4.158 0 01-.542-1.291l-.006-.029a.534.534 0 00-.52-.415H1.004v-1.067h1.189a.533.533 0 00.519-.411l.001-.004c.116-.5.305-.941.558-1.337l-.01.017a.535.535 0 00-.074-.661l-.842-.842.754-.754.842.842a.535.535 0 00.663.073l-.002.001c.379-.243.82-.432 1.291-.543l.029-.006a.534.534 0 00.415-.52V11.67h1.067v1.189c0 .253.176.464.411.519l.004.001c.5.117.941.306 1.337.559l-.017-.01a.534.534 0 00.661-.074l.842-.842.754.754-.842.842a.535.535 0 00-.072.664l-.001-.002c.244.379.434.82.545 1.291l.006.029a.534.534 0 00.517.415h1.189v1.067z"/><path fill="var(--color2, #4ec6ab)" d="M6.871 14.871a2.667 2.667 0 100 5.333 2.667 2.667 0 000-5.333zm0 4.266a1.6 1.6 0 110-3.2 1.6 1.6 0 010 3.2zm20.267 4.267h-1.315a5.163 5.163 0 00-.373-.891l.014.028.931-.931a.533.533 0 000-.754l-1.508-1.508a.533.533 0 00-.754 0l-.931.931a5.038 5.038 0 00-.826-.349l-.037-.01v-1.315a.533.533 0 00-.533-.533h-2.133a.533.533 0 00-.533.533v1.315c-.334.106-.62.228-.892.373l.028-.014-.931-.931a.533.533 0 00-.754 0l-1.508 1.508a.533.533 0 000 .754l.931.931a5.038 5.038 0 00-.349.826l-.01.037H14.34a.533.533 0 00-.533.533v2.133c0 .295.239.533.533.533h1.315c.106.334.228.62.373.891l-.014-.028-.931.931a.533.533 0 000 .754l1.508 1.508a.533.533 0 00.754 0l.931-.931c.243.131.529.253.826.349l.037.01v1.315c0 .295.239.533.533.533h2.133a.533.533 0 00.533-.533v-1.315c.334-.106.62-.228.891-.373l-.028.014.931.931a.533.533 0 00.754 0l1.508-1.508a.533.533 0 000-.754l-.931-.931c.131-.243.253-.529.349-.826l.01-.037h1.315a.533.533 0 00.533-.533v-2.133a.533.533 0 00-.533-.533zm-.534 2.133h-1.189a.533.533 0 00-.519.411l-.001.004c-.116.5-.305.94-.558 1.337l.01-.017a.53.53 0 00.074.662l.842.842-.754.754-.842-.842a.533.533 0 00-.664-.072l.002-.001c-.379.244-.82.433-1.291.545l-.029.006a.535.535 0 00-.415.517v1.19h-1.067v-1.189a.533.533 0 00-.411-.519l-.004-.001a4.232 4.232 0 01-1.337-.558l.017.01a.535.535 0 00-.662.074l-.842.842-.754-.754.842-.842a.533.533 0 00.072-.664l.001.002a4.206 4.206 0 01-.542-1.291l-.006-.029a.534.534 0 00-.52-.415h-1.189v-1.067h1.189a.533.533 0 00.519-.411l.001-.004c.116-.5.305-.94.558-1.337l-.01.017a.53.53 0 00-.074-.662l-.842-.842.754-.754.842.842a.533.533 0 00.663.073l-.002.001c.379-.243.82-.432 1.291-.543l.029-.006a.534.534 0 00.415-.52v-1.189h1.067v1.189c0 .253.176.464.411.519l.004.001c.5.117.941.306 1.337.559l-.017-.01a.53.53 0 00.661-.074l.842-.842.754.754-.842.842a.533.533 0 00-.072.664l-.001-.002c.243.379.433.82.544 1.291l.006.029a.535.535 0 00.517.415h1.189v1.066z"/><path fill="var(--color2, #4ec6ab)" d="M20.738 22.337a2.667 2.667 0 100 5.334 2.667 2.667 0 000-5.334zm0 4.267a1.6 1.6 0 110-3.2 1.6 1.6 0 010 3.2zM14.79 5.868a10.111 10.111 0 00-6.431 3.343l-.009.011a.533.533 0 00.046.754h.001a.533.533 0 00.753-.046 9.033 9.033 0 015.718-2.996l.042-.004a.534.534 0 00.47-.592v.002a.534.534 0 00-.592-.47h.002zM5.513 9.042h.001a.532.532 0 00.433-.222l.001-.002c2.051-2.858 5.246-4.782 8.901-5.1l.046-.003a.534.534 0 00.468-.594v.003a.534.534 0 00-.53-.472l-.03.001h.001A13.314 13.314 0 005.106 8.16l-.027.04a.533.533 0 00.433.843z"/></symbol><symbol id="shuffle" viewBox="0 0 32 32"><path fill="var(--color1, #fff)" d="M31.625 22.75l-7.5-5.625a.935.935 0 00-1.5.75v2.813h-3.344l-3.093-4.124 3.307-5.251h3.129v2.813a.938.938 0 001.5.75l7.5-5.625a.938.938 0 000-1.5l-7.5-5.625a.935.935 0 00-1.5.75v2.813h-4.75a2.813 2.813 0 00-2.444 1.422l-2.891 4.59-3.665-4.886a2.823 2.823 0 00-2.25-1.126H.936a.938.938 0 00-.938.938v3.75c0 .518.42.938.938.938h4.281l4.112 5.483-2.451 3.892H.936a.938.938 0 00-.938.938v3.75c0 .518.42.938.938.938h7.563a2.813 2.813 0 002.444-1.422l2.035-3.231 2.645 3.527a2.823 2.823 0 002.25 1.126h4.75v2.813a.936.936 0 001.5.75l7.5-5.625a.938.938 0 000-1.5zM6.438 9.813a.938.938 0 00-.75-.375H1.875V7.563h4.75a.94.94 0 01.75.375l4.095 5.461-1.07 1.698-3.963-5.284zm2.881 14.143a.938.938 0 01-.819.482H1.875v-1.875h5.522a.935.935 0 00.793-.438l8.839-14.036.026-.044a.938.938 0 01.819-.482h5.688c.518 0 .938-.42.938-.938V4.75l5 3.75-5 3.75v-1.875a.938.938 0 00-.938-.938h-4.584a.935.935 0 00-.793.438c-.021.034-8.846 14.046-8.866 14.08zM24.5 27.25v-1.875a.938.938 0 00-.938-.938h-5.688a.94.94 0 01-.75-.375l-3.076-4.102 1.07-1.698 2.944 3.925a.938.938 0 00.75.375h4.75c.518 0 .938-.42.938-.938v-1.875l5 3.75-5 3.75z"/></symbol><symbol id="worldwide" viewBox="0 0 32 32"><path fill="var(--color2, #4ec6ab)" d="M31.947 14.816a.555.555 0 00.032-.156.525.525 0 00-.027-.166l-.041-.117a15.981 15.981 0 00-5.786-10.729l-.029-.023c-.235-.191-.481-.364-.726-.542-.012-.01-.019-.025-.032-.034s-.024-.009-.035-.016A15.927 15.927 0 0015.984.028h-.002c-.138 0-.276 0-.379.011a15.637 15.637 0 00-5.325 1.04l.107-.036a4.799 4.799 0 00-7.752 3.791 5.07 5.07 0 00.432 1.802l-.013-.032a15.802 15.802 0 00-1.392 2.27l-.042.092c-.008.013-.013.027-.02.04-3.786 7.828-.636 17.246 7.098 21.221s17.225 1.055 21.388-6.579c1.091-1.971 1.779-4.303 1.893-6.784l.001-.035c.017-.258.022-.52.022-.783 0-.414-.021-.824-.053-1.232zm-1.552-2.74c-.068-.06-.13-.13-.201-.185a6.992 6.992 0 00-2.282-1.152l-.05-.012a5.047 5.047 0 00-2.376-.018l.034-.007a4.636 4.636 0 01-2.026.004l.031.006c-1.276-.279-2.285-.499-2.82-1.353-.766-1.228-.407-2.955.402-3.562a1.206 1.206 0 01.921-.193l-.008-.001a3.404 3.404 0 001.677-.288l-.022.009a4.328 4.328 0 001.437-1.092l.005-.006c.101.078.208.148.306.229a14.964 14.964 0 014.945 7.517l.025.105zM7.438 1.098a3.744 3.744 0 013.738 3.738c0 1.597-2.399 5.254-3.738 7.108a33.035 33.035 0 01-3.206-5.275l-.087-.199a4.372 4.372 0 01-.443-1.619l-.001-.015a3.742 3.742 0 013.738-3.738zM1.03 16.049a15.12 15.12 0 01.317-3.061l-.017.098c.057.742.154 1.403.24 1.975.331 2.189.644 4.253 2.257 6.141.675.795 1.805 2.125 3.552 2.321s3.935-.808 4.567-1.121l.242-.122a2.322 2.322 0 011.109-.357h.006c.7.065 1.313.396 1.745.889l.003.003c.911 1.009 1.142 2.693.495 3.604a1.644 1.644 0 01-.809.567l-.012.003a2.513 2.513 0 00-1.333 1.057l-.006.011a3.307 3.307 0 00-.224 2.693l-.007-.023A14.975 14.975 0 011.029 16.049zM15.981 31c-.516 0-1.031-.027-1.545-.08a1.967 1.967 0 01-.117-.167l-.005-.008a2.246 2.246 0 01-.273-1.081c0-.388.097-.754.269-1.074l-.006.012a1.48 1.48 0 01.828-.628l.01-.003a2.669 2.669 0 001.268-.928l.005-.007c.929-1.306.666-3.569-.571-4.937a3.66 3.66 0 00-2.518-1.245l-.011-.001h-.024a3.212 3.212 0 00-1.604.482l.014-.008-.228.115c-1.167.575-2.827 1.144-3.976 1.014-1.326-.148-2.247-1.233-2.858-1.952-1.416-1.655-1.693-3.487-2.014-5.607a15.504 15.504 0 01-.027-5.585l-.014.093c.326-.656.647-1.205 1.001-1.73l-.034.053a4.873 4.873 0 00.176.342l-.016-.032.16.303.112.205.171.304.116.202.179.303.118.198c.063.107.127.207.19.31l.107.175.236.374.062.097c.216.342.312.487.408.631l-.118-.188.107.16.174.26.127.185c.093.14.138.205.183.27l-.046-.07.128.184.117.167a60.066 60.066 0 00.218.308l.107.147.087.121.085.117.069.094.065.089.039.053.094.126a.534.534 0 00.853.001l.001-.001c.448-.594 4.38-5.865 4.38-8.333 0-.156-.01-.311-.025-.465l-.018-.142a3.88 3.88 0 00-.053-.32 4.585 4.585 0 00-.119-.475c-.013-.043-.024-.086-.039-.128a4.79 4.79 0 00-.175-.452l.012.03-.038-.077a5.36 5.36 0 00-.168-.329c-.027-.048-.056-.094-.085-.142a6.716 6.716 0 00-.173-.269l.013.02c-.045-.065-.079-.111-.113-.157l.011.015c-.018-.024-.034-.049-.053-.071a14.022 14.022 0 013.377-.707l.055-.004c-.832 1.571-1.104 3.025-.794 4.325.247.91.691 1.695 1.285 2.34l-.004-.004c.502.622.864 1.071.841 1.803-.046 1.548-1.795 2.837-2.456 3.325a9.095 9.095 0 01-2.802 1.369l-.065.016c-.97.317-1.807.59-2.127 1.545a3.043 3.043 0 001.293 3.292c.371.204.812.324 1.282.324.303 0 .593-.05.865-.142l-.019.006a6.578 6.578 0 012.391-.109l-.034-.004c1.015.144 1.889.267 2.304.848.246.347.233.706.185 1.364a6.451 6.451 0 00.29 2.813l-.013-.046c.244.731.611 1.834 1.495 1.961.057.009.115.014.173.014.625 0 1.008-.552 1.411-1.133.178-.257.374-.534.609-.812 1.099 1.776 2.215 3.257 2.267 3.328a.534.534 0 00.853.002l.001-.001a43.483 43.483 0 003.046-4.647l.115-.219a7.028 7.028 0 011.881.862l-.027-.016a14.929 14.929 0 01-12.918 7.437zm9.967-14.531a3.72 3.72 0 011.247 2.783v.001c0 .384-.156 1.145-.896 2.591a39.574 39.574 0 01-2.919 4.625l.078-.111a46.41 46.41 0 01-2.14-3.249 18.537 18.537 0 01-1.103-2.098l-.05-.125a4.372 4.372 0 01-.443-1.619l-.001-.015a3.742 3.742 0 014.082-3.722c.833.078 1.574.42 2.15.941l-.003-.003zm4.965.308a14.667 14.667 0 01-1.542 5.929l.039-.085a7.902 7.902 0 00-1.818-.857l-.057-.016a6.204 6.204 0 00.726-2.472l.001-.022a4.823 4.823 0 00-2.69-4.315l-.034-.015a4.858 4.858 0 00-.329-.148l-.035-.012c-.085-.033-.173-.059-.26-.087-.053-.016-.101-.036-.153-.053a3.878 3.878 0 00-.389-.093l-.029-.005h-.007c-.085-.016-.172-.024-.258-.036a4.772 4.772 0 00-5.426 4.727v.038-.002c.045.754.235 1.453.543 2.085l-.014-.033c.351.798.689 1.45 1.062 2.081l-.05-.092c-.32.349-.621.73-.892 1.131l-.022.035c-.153.259-.335.48-.547.67l-.003.002c-.107-.016-.305-.244-.641-1.243a5.507 5.507 0 01-.222-2.38l-.003.027a2.843 2.843 0 00-.388-2.072l.007.012c-.682-.953-1.872-1.121-3.03-1.286a7.493 7.493 0 00-2.751.132l.051-.01c-.683.131-1 .179-1.363-.047a2.024 2.024 0 01-.841-2.059l-.002.013c.143-.427.57-.581 1.442-.868 1.21-.353 2.266-.88 3.201-1.562l-.029.02c.778-.571 2.83-2.085 2.892-4.152.034-1.13-.531-1.828-1.078-2.502a4.604 4.604 0 01-1.064-1.876l-.008-.033c-.284-1.19.068-2.585 1.021-4.148h.061c3.079.005 5.939.937 8.317 2.532l-.054-.034c-.279.31-.613.563-.989.745l-.019.008a2.356 2.356 0 01-1.193.185l.01.001a2.23 2.23 0 00-1.593.412l.006-.004c-1.211.911-1.753 3.236-.665 4.981.775 1.237 2.098 1.525 3.543 1.84a5.63 5.63 0 002.395-.017l-.037.007a4.021 4.021 0 011.923.012l-.028-.006a5.97 5.97 0 011.953.981l-.015-.011a4.385 4.385 0 011.316 1.863l.01.03c.044.472.071.945.071 1.425 0 .239-.005.481-.021.728z"/><path fill="var(--color2, #4ec6ab)" d="M7.438 6.437a2.136 2.136 0 100-4.272 2.136 2.136 0 000 4.272zm0-3.203a1.068 1.068 0 110 2.136 1.068 1.068 0 010-2.136zm13.883 15.485a2.136 2.136 0 104.271 0 2.136 2.136 0 00-4.271 0zm3.204 0a1.068 1.068 0 11-2.136 0 1.068 1.068 0 012.136 0z"/></symbol></defs></svg>