<svg xmlns="http://www.w3.org/2000/svg" viewBox="0 0 510 510" id="add-to-cart"><path d="M427.258 340.83a15.001 15.001 0 0014.729-12.159l30.8-159.69c1.783-9.245-5.309-17.841-14.729-17.841h-92.321l23.015-31.541c7.222-9.898.129-23.842-12.117-23.842h-32.676V15c0-8.284-6.716-15-15-15h-83.773c-8.284 0-15 6.716-15 15v80.757H197.51c-12.253 0-19.336 13.949-12.117 23.842l23.015 31.541h-78.512l-9.637-54.425a15 15 0 00-14.771-12.385h-53.55c-8.284 0-15 6.716-15 15s6.716 15 15 15h40.973c13.309 75.166 2.12 15.479 40.217 212.935v48.659c-30.218 6.862-52.851 33.923-52.851 66.187 0 37.432 30.454 67.886 67.886 67.886 32.277 0 59.346-22.65 66.195-52.886h95.919c6.847 30.238 33.917 52.89 66.195 52.89 37.432 0 67.886-30.454 67.886-67.886s-30.454-67.886-67.886-67.886c-32.275 0-59.343 22.648-66.193 52.881h-95.922c-5.758-25.418-25.807-45.458-51.23-51.203V340.83zM245.185 125.757c8.284 0 15-6.716 15-15V30h53.773v80.757c0 8.284 6.716 15 15 15h18.162l-60.049 82.295-60.049-82.295zm-14.887 55.383l44.657 61.202c5.991 8.21 18.253 8.197 24.234 0l44.658-61.202h96.042l-25.014 129.69H160.511l-25.022-129.69zm146.175 223.089c20.89 0 37.886 16.996 37.886 37.886S397.363 480 376.473 480s-37.885-16.996-37.885-37.886 16.995-37.885 37.885-37.885zm-190.425 37.868l-.001.013.001.013c-.007 20.884-17 37.873-37.885 37.873-20.89 0-37.886-16.996-37.886-37.886s16.996-37.886 37.886-37.886c20.886.001 37.878 16.989 37.885 37.873z" data-original="#000000" class="active-path" data-old_color="#000000" fill="#FFF"/></svg>