<svg xmlns="http://www.w3.org/2000/svg" id="compass"><path d="M388.356 459.481c-3.033-4.615-9.232-5.898-13.849-2.862C339.303 479.766 298.324 492 256 492c-119.103 0-216-96.897-216-216 0-41.441 11.765-81.696 34.023-116.415 2.98-4.649 1.628-10.834-3.021-13.815s-10.835-1.627-13.816 3.021C32.858 186.737 20 230.725 20 276c0 63.038 24.548 122.303 69.123 166.877C133.697 487.452 192.962 512 256 512c46.24 0 91.019-13.372 129.495-38.67 4.614-3.034 5.896-9.234 2.861-13.849zm34.521-350.358c-34.372-34.372-77.483-56.821-124.319-65.304.012-.412.026-.823.026-1.235C298.584 19.103 279.48 0 256 0c-23.48 0-42.584 19.103-42.584 42.584 0 .425.011.85.024 1.275-28.165 5.144-55.229 15.371-79.822 30.314-4.721 2.868-6.222 9.019-3.354 13.739 2.867 4.719 9.018 6.222 13.738 3.353C177.666 70.811 216.394 60 256 60c119.103 0 216 96.897 216 216 0 40.202-11.117 79.43-32.15 113.441-2.905 4.697-1.452 10.86 3.245 13.765a9.996 9.996 0 0013.765-3.245C479.849 362.786 492 319.921 492 276c0-63.038-24.548-122.303-69.123-166.877zM256 40c-7.547 0-15.063.368-22.528 1.08C234.249 29.326 244.053 20 256 20c11.941 0 21.742 9.318 22.527 21.064A240.19 240.19 0 00256 40zm7.069 228.93C261.21 267.07 258.63 266 256 266s-5.21 1.07-7.07 2.93S246 273.37 246 276s1.069 5.21 2.93 7.07A10.077 10.077 0 00256 286c2.64 0 5.21-1.07 7.069-2.93 1.86-1.86 2.931-4.44 2.931-7.07s-1.07-5.21-2.931-7.07z" data-original="#000000" class="active-path" data-old_color="#000000" fill="#4EC6AB"/><path d="M263.069 125.93A10.056 10.056 0 00256 123c-2.63 0-5.21 1.07-7.07 2.93S246 130.37 246 133s1.069 5.21 2.93 7.07c1.861 1.86 4.44 2.93 7.07 2.93s5.21-1.07 7.069-2.93c1.86-1.86 2.931-4.44 2.931-7.07s-1.07-5.21-2.931-7.07zm0 286A10.054 10.054 0 00256 409c-2.63 0-5.21 1.07-7.07 2.93S246 416.37 246 419s1.069 5.21 2.93 7.07c1.861 1.86 4.44 2.93 7.07 2.93s5.21-1.07 7.069-2.93c1.86-1.86 2.931-4.44 2.931-7.07s-1.07-5.21-2.931-7.07zm143-143C404.21 267.07 401.63 266 399 266s-5.21 1.07-7.07 2.93c-1.86 1.86-2.93 4.44-2.93 7.07s1.069 5.21 2.93 7.07c1.861 1.86 4.44 2.93 7.07 2.93s5.21-1.07 7.069-2.93c1.86-1.86 2.931-4.44 2.931-7.07s-1.07-5.21-2.931-7.07zm-286 0C118.21 267.07 115.63 266 113 266s-5.21 1.07-7.07 2.93S103 273.37 103 276s1.069 5.21 2.93 7.07c1.861 1.86 4.44 2.93 7.07 2.93s5.21-1.07 7.069-2.93c1.86-1.86 2.931-4.44 2.931-7.07s-1.07-5.21-2.931-7.07z" data-original="#000000" class="active-path" data-old_color="#000000" fill="#4EC6AB"/><path d="M256 86C151.233 86 66 171.234 66 276s85.233 190 190 190 190-85.234 190-190S360.767 86 256 86zM86 276c0-93.738 76.262-170 170-170 42.848 0 82.039 15.941 111.969 42.196l-111.64 77.812c-.11-.001-.219-.008-.33-.008-27.57 0-50 22.43-50 50 0 .108.007.214.008.321L128.063 387.82C101.887 357.908 86 318.776 86 276zm140.115 2.54A30.18 30.18 0 01226 276c0-16.542 13.458-30 30-30a30.031 30.031 0 012.522.114c14.53 1.216 26.144 12.827 27.364 27.356l.008.11c.064.799.106 1.604.106 2.42 0 16.542-13.458 30-30 30-.822 0-1.634-.042-2.44-.108l-.094-.007c-14.521-1.221-26.126-12.824-27.351-27.345zm4.546 40.538l-58.949 41.21 41.21-58.949a50.363 50.363 0 0017.739 17.739zm50.705-86.141l58.406-40.709-40.708 58.406a50.384 50.384 0 00-17.698-17.697zM256 446c-42.776 0-81.908-15.887-111.819-42.063l111.498-77.945c.108.001.214.008.322.008 27.57 0 50-22.43 50-50 0-.11-.008-.219-.008-.329l77.813-111.64C410.059 193.961 426 233.152 426 276c0 93.738-76.262 170-170 170zM103.609 108.79a10.029 10.029 0 00-7.069-2.93c-2.641 0-5.221 1.06-7.07 2.93a10.016 10.016 0 00-2.93 7.07c0 2.63 1.06 5.21 2.93 7.07a10.056 10.056 0 007.07 2.93c2.63 0 5.2-1.07 7.069-2.93 1.86-1.86 2.92-4.44 2.92-7.07 0-2.64-1.06-5.22-2.92-7.07zM428.75 422.63c-1.86-1.86-4.44-2.92-7.07-2.92s-5.21 1.06-7.07 2.92a10.086 10.086 0 00-2.93 7.08c0 2.63 1.07 5.21 2.93 7.07s4.44 2.93 7.07 2.93 5.21-1.07 7.07-2.93a10.08 10.08 0 002.93-7.07 10.1 10.1 0 00-2.93-7.08z" data-original="#000000" class="active-path" data-old_color="#000000" fill="#4EC6AB"/></svg>