<svg xmlns="http://www.w3.org/2000/svg" viewBox="0 0 64 64" id="moneyback"><path d="M61 8h-3a29.04 29.04 0 01-9.172-1.488A29.344 29.344 0 0140.6 2.2a1 1 0 00-1.2 0A29.2 29.2 0 0122 8h-3a1 1 0 00-1 1v7.8a33.034 33.034 0 00.439 5.363l1.973-.326A31.155 31.155 0 0120 16.8V10h2a31.228 31.228 0 0018-5.762 31.373 31.373 0 008.193 4.171A31.039 31.039 0 0058 10h2v6.8a31.158 31.158 0 01-17.669 27.987l-2.76 1.31.858 1.806 2.761-1.31A33.167 33.167 0 0062 16.8V9a1 1 0 00-1-1z" data-original="#000000" class="active-path" data-old_color="#000000" fill="#4EC6AB"/><path d="M41.471 42.983A29.15 29.15 0 0058 16.8v-3.82a1 1 0 00-.97-1 33.129 33.129 0 01-16.5-4.989 1 1 0 00-1.056 0 33.129 33.129 0 01-16.5 4.989 1 1 0 00-.97 1v3.82a28.6 28.6 0 00.512 5.389l1.965-.378A26.529 26.529 0 0124 16.8v-2.863a35.137 35.137 0 0016-4.926 35.137 35.137 0 0016 4.926V16.8a27.137 27.137 0 01-15.386 24.375l-1.04.49.852 1.81z" data-original="#000000" class="active-path" data-old_color="#000000" fill="#4EC6AB"/><path d="M2 58.879A3.124 3.124 0 005.121 62h33.758a3.121 3.121 0 002.207-5.328L38 53.586V44.18a14.389 14.389 0 00-10.537-13.869l2.437-4.864A1 1 0 0029 24H15a1 1 0 00-.895 1.447l2.432 4.864A14.389 14.389 0 006 44.18v9.406l-3.086 3.086A3.1 3.1 0 002 58.879zM27.382 26l-2 4h-6.764l-2-4zM4.328 58.086l3.379-3.379A1 1 0 008 54v-9.82A12.391 12.391 0 0118.092 32h7.816A12.391 12.391 0 0136 44.18V54a1 1 0 00.293.707l3.379 3.379A1.121 1.121 0 0138.879 60H5.121a1.121 1.121 0 01-.793-1.914z" data-original="#000000" class="active-path" data-old_color="#000000" fill="#4EC6AB"/><path d="M20.5 47h3a1.5 1.5 0 010 3H18v2h3v2h2v-2h.5a3.5 3.5 0 000-7h-3a1.5 1.5 0 010-3H26v-2h-3v-2h-2v2h-.5a3.5 3.5 0 000 7zM39 12h2v2h-2zm13 4h2v2h-2zm-26 0h2v2h-2zm22 12h2v2h-2zm-9 9h2v2h-2zm-9-9h2v2h-2z" data-original="#000000" class="active-path" data-old_color="#000000" fill="#4EC6AB"/></svg>