<svg xmlns="http://www.w3.org/2000/svg" height="512" viewBox="1 1 511.999 511.999" width="512"><path d="M503.465 93.867h-22.98a102.191 102.191 0 00-4.114-9.976l16.215-16.215a8.528 8.528 0 000-12.063l-36.18-36.226c-3.336-3.328-8.734-3.328-12.066 0l-16.215 16.215a103.684 103.684 0 00-9.992-4.09V8.532A8.533 8.533 0 00409.598 0h-51.2a8.532 8.532 0 00-8.53 8.531v22.98a104.325 104.325 0 00-9.977 4.114l-16.215-16.21a8.528 8.528 0 00-12.063 0l-36.226 36.179a8.54 8.54 0 000 12.066l16.215 16.215a103.684 103.684 0 00-4.09 9.992h-22.98a8.533 8.533 0 00-8.532 8.535v51.2c0 4.71 3.82 8.53 8.531 8.53h22.98c1.2 3.395 2.571 6.727 4.114 9.977l-16.21 16.211a8.532 8.532 0 000 12.067l36.206 36.207a8.532 8.532 0 0012.067 0l16.21-16.211c3.25 1.539 6.579 2.91 9.97 4.105v22.977a8.533 8.533 0 008.53 8.535h51.2a8.534 8.534 0 008.535-8.535v-22.977a104.575 104.575 0 009.976-4.113l16.211 16.21a8.532 8.532 0 0012.067 0l36.207-36.206a8.532 8.532 0 000-12.066l-16.211-16.211c1.539-3.25 2.91-6.579 4.101-9.97h22.98a8.533 8.533 0 008.536-8.53v-51.204c0-4.71-3.82-8.53-8.535-8.53zm-8.531 51.2h-20.696a8.533 8.533 0 00-8.207 6.21 84.842 84.842 0 01-7.543 18.29 8.526 8.526 0 001.418 10.238l14.598 14.61-24.129 24.132-14.61-14.602a8.537 8.537 0 00-10.242-1.418 84.892 84.892 0 01-18.285 7.543 8.541 8.541 0 00-6.215 8.211v20.653h-34.09v-20.696a8.536 8.536 0 00-6.214-8.207 85.29 85.29 0 01-18.285-7.543 8.53 8.53 0 00-10.239 1.414l-14.61 14.602-24.132-24.133 14.602-14.605a8.536 8.536 0 001.414-10.243 84.892 84.892 0 01-7.543-18.285 8.529 8.529 0 00-8.164-6.172h-20.696v-34.132h20.696a8.533 8.533 0 008.207-6.211 85.238 85.238 0 017.543-18.29 8.53 8.53 0 00-1.414-10.238L293.496 61.63l24.133-24.133 14.605 14.602a8.536 8.536 0 0010.243 1.414 84.892 84.892 0 0118.285-7.543 8.531 8.531 0 006.172-8.207V17.066h34.132v20.692c0 3.82 2.54 7.172 6.211 8.21a84.842 84.842 0 0118.29 7.544 8.531 8.531 0 0010.238-1.418l14.61-14.602 24.132 24.133-14.602 14.61a8.537 8.537 0 00-1.418 10.242 84.892 84.892 0 017.543 18.285 8.537 8.537 0 008.211 6.21h20.649v34.094zm0 0" data-original="#000000" class="active-path" data-old_color="#000000" fill="#4EC6AB"/><path d="M384 76.8c-28.277 0-51.2 22.923-51.2 51.2s22.923 51.2 51.2 51.2 51.2-22.923 51.2-51.2c-.028-28.266-22.934-51.172-51.2-51.2zm0 85.333c-18.852 0-34.133-15.281-34.133-34.133S365.148 93.867 384 93.867s34.133 15.281 34.133 34.133-15.281 34.133-34.133 34.133zM221.867 264.531c0-4.71-3.82-8.531-8.535-8.531h-21.043a83.532 83.532 0 00-5.742-13.816l14.89-14.891a8.532 8.532 0 000-12.066l-24.132-24.13a8.532 8.532 0 00-12.067 0l-14.89 14.891a83.845 83.845 0 00-13.813-5.746V179.2c0-4.71-3.82-8.531-8.535-8.531H93.867a8.53 8.53 0 00-8.531 8.531v21.043a83.745 83.745 0 00-13.816 5.746l-14.891-14.89a8.532 8.532 0 00-12.066 0L20.43 215.227a8.532 8.532 0 000 12.066l14.89 14.89A83.532 83.532 0 0029.578 256H8.531A8.532 8.532 0 000 264.531v34.137c0 4.71 3.82 8.531 8.531 8.531h21.047a83.393 83.393 0 005.742 13.817l-14.89 14.89a8.532 8.532 0 000 12.067l24.129 24.132c3.336 3.329 8.734 3.329 12.066 0l14.895-14.89a83.352 83.352 0 0013.812 5.742V384a8.53 8.53 0 008.535 8.531H128a8.527 8.527 0 008.531-8.531v-21.043a83.254 83.254 0 0013.817-5.742l14.89 14.89a8.532 8.532 0 0012.067 0l24.132-24.132a8.532 8.532 0 000-12.067l-14.89-14.89a83.254 83.254 0 005.742-13.817h21.043a8.533 8.533 0 008.535-8.531zm-17.066 25.602H185.77a8.54 8.54 0 00-8.32 6.64 67.983 67.983 0 01-8.762 21.11 8.537 8.537 0 001.175 10.582l13.477 13.473-12.067 12.066-13.476-13.473a8.533 8.533 0 00-10.578-1.18 67.94 67.94 0 01-21.114 8.81 8.529 8.529 0 00-6.636 8.277v19.027h-17.07v-19.028a8.53 8.53 0 00-6.637-8.32 67.92 67.92 0 01-21.114-8.765 8.527 8.527 0 00-10.578 1.18l-13.476 13.472-12.067-12.066L52 328.464a8.533 8.533 0 001.18-10.582 67.992 67.992 0 01-8.766-21.11 8.533 8.533 0 00-8.32-6.64H17.066v-17.067h19.028a8.53 8.53 0 008.32-6.636 68.014 68.014 0 018.766-21.114A8.527 8.527 0 0052 234.738l-13.473-13.476 12.067-12.067 13.472 13.473a8.538 8.538 0 0010.575 1.187 68.168 68.168 0 0121.12-8.773 8.53 8.53 0 006.637-8.32v-19.028h17.067v19.028a8.533 8.533 0 006.64 8.32 68.186 68.186 0 0121.118 8.773 8.538 8.538 0 0010.574-1.187l13.473-13.473 12.066 12.067-13.473 13.472a8.533 8.533 0 00-1.18 10.582 67.918 67.918 0 018.81 21.11 8.528 8.528 0 008.277 6.64h19.027v17.067zm0 0" data-original="#000000" class="active-path" data-old_color="#000000" fill="#4EC6AB"/><path d="M110.934 238.934c-23.567 0-42.668 19.101-42.668 42.664 0 23.566 19.101 42.668 42.668 42.668s42.668-19.102 42.668-42.668c-.032-23.551-19.118-42.637-42.668-42.664zm0 68.265c-14.137 0-25.602-11.46-25.602-25.601 0-14.137 11.461-25.598 25.602-25.598s25.601 11.46 25.601 25.598c-.004 14.14-11.465 25.601-25.601 25.601zM435.2 375.465h-21.044a83.352 83.352 0 00-5.742-13.813l14.89-14.89a8.532 8.532 0 000-12.067l-24.132-24.132a8.532 8.532 0 00-12.067 0l-14.89 14.89a84.167 84.167 0 00-13.813-5.742v-21.043a8.536 8.536 0 00-8.535-8.535h-34.133a8.534 8.534 0 00-8.535 8.535v21.043a84.167 84.167 0 00-13.812 5.742l-14.89-14.89a8.532 8.532 0 00-12.067 0l-24.133 24.132a8.532 8.532 0 000 12.067l14.89 14.89a83.352 83.352 0 00-5.742 13.813h-21.043a8.534 8.534 0 00-8.535 8.535v34.133a8.534 8.534 0 008.535 8.535h21.043a83.352 83.352 0 005.742 13.812l-14.89 14.891a8.532 8.532 0 000 12.067l24.133 24.132a8.532 8.532 0 0012.066 0l14.89-14.89a83.352 83.352 0 0013.813 5.742v21.043a8.534 8.534 0 008.535 8.535h34.133a8.534 8.534 0 008.535-8.535v-21.043a83.352 83.352 0 0013.813-5.742l14.89 14.89a8.532 8.532 0 0012.067 0l24.133-24.132a8.532 8.532 0 000-12.067l-14.89-14.89a83.352 83.352 0 005.741-13.813H435.2a8.534 8.534 0 008.535-8.535V384a8.534 8.534 0 00-8.535-8.535zm-8.532 34.133h-19.031a8.54 8.54 0 00-8.32 6.64 67.945 67.945 0 01-8.762 21.11 8.537 8.537 0 001.175 10.582l13.477 13.476-12.066 12.067-13.477-13.477a8.537 8.537 0 00-10.582-1.176 67.91 67.91 0 01-21.11 8.805 8.539 8.539 0 00-6.64 8.277v19.032h-17.066v-19.032a8.536 8.536 0 00-6.637-8.32 68.005 68.005 0 01-21.113-8.762 8.532 8.532 0 00-10.579 1.176l-13.476 13.477-12.066-12.067 13.476-13.476a8.532 8.532 0 001.176-10.578 68.005 68.005 0 01-8.762-21.114 8.536 8.536 0 00-8.32-6.636h-19.031v-17.067h19.03a8.54 8.54 0 008.321-6.64 67.983 67.983 0 018.762-21.11 8.537 8.537 0 00-1.176-10.582l-13.476-13.473 12.066-12.066 13.476 13.473a8.533 8.533 0 0010.57 1.187 68.168 68.168 0 0121.122-8.773 8.53 8.53 0 006.637-8.32v-19.028h17.066v19.027a8.536 8.536 0 006.64 8.32 68.168 68.168 0 0121.122 8.774 8.533 8.533 0 0010.57-1.187l13.473-13.473 12.066 12.066-13.473 13.473a8.532 8.532 0 00-1.175 10.582 68.003 68.003 0 018.804 21.11 8.535 8.535 0 008.278 6.64h19.027v17.063zm0 0" data-original="#000000" class="active-path" data-old_color="#000000" fill="#4EC6AB"/><path d="M332.8 358.398c-23.566 0-42.667 19.102-42.667 42.668 0 23.563 19.101 42.668 42.668 42.668 23.562 0 42.664-19.105 42.664-42.668-.028-23.55-19.113-42.636-42.664-42.668zm0 68.27c-14.14 0-25.6-11.461-25.6-25.602s11.46-25.601 25.6-25.601c14.137 0 25.602 11.46 25.602 25.601s-11.465 25.602-25.601 25.602zM237.637 94.89a161.74 161.74 0 00-103.047 53.65 8.542 8.542 0 00.742 12.058c3.531 3.125 8.93 2.793 12.055-.743a144.695 144.695 0 0192.16-48 8.537 8.537 0 007.527-9.437 8.535 8.535 0 00-9.437-7.527zM89.2 145.664a8.528 8.528 0 006.952-3.574A195.89 195.89 0 01239.31 60.434a8.533 8.533 0 007.5-9.454 8.534 8.534 0 00-8.934-7.546 212.853 212.853 0 00-155.605 88.75 8.532 8.532 0 006.93 13.488zm0 0" data-original="#000000" class="active-path" data-old_color="#000000" fill="#4EC6AB"/></svg>