<svg xmlns="http://www.w3.org/2000/svg" width="512" height="512"><path d="M506 364l-120-90a15.001 15.001 0 00-24 12v45h-53.5l-49.484-65.977L311.932 181H362v45a15.001 15.001 0 0024 12l120-90a15.001 15.001 0 000-24L386 34a15.001 15.001 0 00-24 12v45h-76a45.015 45.015 0 00-39.11 22.745l-46.252 73.442-58.633-78.175C133.568 97.733 120.108 91 106 91H15c-8.284 0-15 6.716-15 15v60c0 8.284 6.716 15 15 15h68.5l65.791 87.72L110.068 331H15c-8.284 0-15 6.716-15 15v60c0 8.284 6.716 15 15 15h121a45.015 45.015 0 0039.11-22.745l32.559-51.7 42.326 56.432C258.432 414.267 271.892 421 286 421h76v45a15.001 15.001 0 0024 12l120-90a15.001 15.001 0 000-24zM103 157a15 15 0 00-12-6H30v-30h76c4.701 0 9.181 2.236 11.994 5.997l65.528 87.368-17.115 27.176L103 157zm46.107 226.293A14.997 14.997 0 01136 391H30v-30h88.349a15 15 0 0012.692-7.007l141.431-224.575c.147-.233.287-.47.421-.71A14.996 14.996 0 01286 121h91c8.284 0 15-6.716 15-15V76l80 60-80 60v-30c0-8.284-6.716-15-15-15h-73.349a15 15 0 00-12.692 7.007c-.338.537-141.543 224.731-141.852 225.286zM392 436v-30c0-8.284-6.716-15-15-15h-91a15.032 15.032 0 01-11.994-5.997l-49.22-65.625 17.114-27.175L289 355a15 15 0 0012 6h76c8.284 0 15-6.716 15-15v-30l80 60-80 60z" data-original="#000000" class="active-path" data-old_color="#000000" fill="#FFF"/></svg>