<svg
    xmlns="http://www.w3.org/2000/svg" id="clock">
    <path d="M256 512C114.835938 512 0 397.164062 0 256S114.835938 0 256 0s256 114.835938 256 256-114.835938 256-256 256zm0-480C132.480469 32 32 132.480469 32 256s100.480469 224 224 224 224-100.480469 224-224S379.519531 32 256 32zm0 0" data-original="#000000" class="active-path" data-old_color="#000000" fill="#FFF"/>
    <path d="M368 394.667969c-4.097656 0-8.191406-1.558594-11.308594-4.695313l-112-112C241.683594 274.964844 240 270.890625 240 266.667969V117.332031c0-8.832031 7.167969-16 16-16s16 7.167969 16 16V260.03125l107.308594 107.308594c6.25 6.25 6.25 16.382812 0 22.632812-3.117188 3.136719-7.210938 4.695313-11.308594 4.695313zm0 0" data-original="#000000" class="active-path" data-old_color="#000000" fill="#FFF"/>
</svg>
