<svg xmlns="http://www.w3.org/2000/svg" width="512" height="512">
  <path d="M377 31c-42.285 0-79.399 20.289-107.329 58.675-5.706 7.841-10.467 15.672-14.372 22.911-3.756-7.197-8.344-14.972-13.859-22.758C214.169 51.342 177.363 31 135 31 55.788 31 0 97.677 0 177.515c0 90.396 72.801 152.433 182.998 246.336 19.823 16.892 40.321 34.359 62.124 53.437C247.95 479.763 251.475 481 255 481c3.525 0 7.05-1.237 9.878-3.711 23.169-20.273 44.905-38.718 65.927-56.556C433.509 333.58 512 268.989 512 177.515 512 97.554 456.099 31 377 31zm-65.606 366.858c-18.101 15.36-36.731 31.17-56.392 48.242-18.289-15.891-35.661-30.695-52.546-45.083C96.781 310.968 29.8 254.04 29.8 177.515 29.8 111.091 75.141 60.8 135 60.8c32.423 0 59.835 15.505 81.476 45.691 17.069 23.809 23.998 48.261 24.066 48.505 1.783 6.454 7.628 10.945 14.326 11.004 6.732.036 12.639-4.342 14.525-10.777C269.67 154.28 297.946 60.8 377 60.8c59.859 0 105.2 50.291 105.2 116.715 0 75.572-68.071 133.165-170.806 220.343z" data-original="#000000" class="active-path" data-old_color="#000000" fill="#FFF"/>
</svg>
