<svg xmlns="http://www.w3.org/2000/svg" viewBox="0 0 324.64 324.64" width="512" height="512">
  <path d="M320.8 149.862c-.8-1.2-1.6-2.4-2.8-3.2-1.2-1.2-2-2-3.2-2.8l-64-44-64.4-44.4c-5.2-3.6-10.8-4.4-16.4-3.6-5.6 1.2-10.8 4-14 9.2-1.2 2-2.4 4-2.8 6-.4 1.6-.8 3.2-.8 4.8v64.8L34 55.462c-5.2-3.6-10.8-4.4-16.4-3.6-5.6 1.2-10.8 4-14 9.2-1.2 2-2.4 4-2.8 6-.4 1.6-.8 3.2-.8 4.8v179.2c0 6 2.4 11.6 6.4 15.6s9.6 6.4 15.6 6.4c2.4 0 5.2-.4 7.2-1.2l123.2-84v63.2c0 6 2.4 11.6 6.4 15.6s9.6 6.4 15.6 6.4c2.4 0 5.2-.4 7.2-1.2 2.4-.8 4.4-2 6-3.6l63.2-43.6 64.4-44.4c5.2-3.6 8-8.8 9.2-14 .8-5.6-.4-11.6-3.6-16.4zm-170 13.2l-128 88.4c-.4 0-.4.4-.8.4h-.8c-.4 0-.8 0-.8-.4-.4-.4-.4-.4-.4-.8v-176.4-1.6c0-.4.4-.4.8-.4h.8l128.4 88.8c0 .4.4.8 0 .8 1.2.8.8 1.2.8 1.2zm152.4 0l-64 44.4-63.6 44c-.4 0-.4.4-.8.4h-.8c-.4 0-.8 0-.8-.4-.4-.4-.4-.4-.4-.8v-176.4-1.6c0-.4.4-.4.8-.4h.8l64.4 44.4 64 44.4c0 .4.4.8 0 .8.8.8.8 1.2.4 1.2z" data-original="#000000" class="active-path" data-old_color="#000000" fill="#FFF"/>
</svg>
