<svg xmlns="http://www.w3.org/2000/svg" width="512" height="512">
  <path d="M506 364l-120-90c-4.544-3.408-10.626-3.957-15.708-1.417C365.21 275.125 362 280.318 362 286v45h-53.5l-49.484-65.977L311.932 181H362v45c0 5.682 3.21 10.875 8.292 13.417 5.082 2.54 11.163 1.992 15.708-1.417l120-90c3.777-2.833 6-7.279 6-12s-2.223-9.167-6-12L386 34c-4.544-3.408-10.626-3.957-15.708-1.417C365.21 35.125 362 40.318 362 46v45h-76c-16.182 0-31.125 8.704-39.11 22.745l-46.252 73.442-58.633-78.175C133.568 97.733 120.108 91 106 91H15c-8.284 0-15 6.716-15 15v60c0 8.284 6.716 15 15 15h68.5l65.791 87.72L110.068 331H15c-8.284 0-15 6.716-15 15v60c0 8.284 6.716 15 15 15h121c16.182 0 31.125-8.704 39.11-22.745l32.559-51.7 42.326 56.432C258.432 414.267 271.892 421 286 421h76v45c0 5.682 3.21 10.875 8.292 13.417 5.08 2.54 11.161 1.994 15.708-1.417l120-90c3.777-2.833 6-7.279 6-12s-2.223-9.167-6-12zM103 157c-2.833-3.777-7.278-6-12-6H30v-30h76c4.701 0 9.181 2.236 11.994 5.997l65.528 87.368-17.115 27.176L103 157zm46.107 226.293C146.467 388.047 141.444 391 136 391H30v-30h88.349c5.153 0 9.946-2.646 12.692-7.007l141.431-224.575c.147-.233.287-.47.421-.71 2.64-4.755 7.663-7.708 13.107-7.708h91c8.284 0 15-6.716 15-15V76l80 60-80 60v-30c0-8.284-6.716-15-15-15h-73.349c-5.153 0-9.946 2.646-12.692 7.007-.338.537-141.543 224.731-141.852 225.286zM392 436v-30c0-8.284-6.716-15-15-15h-91c-4.701 0-9.181-2.236-11.994-5.997l-49.22-65.625 17.114-27.175L289 355c2.833 3.777 7.278 6 12 6h76c8.284 0 15-6.716 15-15v-30l80 60-80 60z" data-original="#000000" class="active-path" data-old_color="#000000" fill="#FFF"/>
</svg>
